<svg version="1" xmlns="http://www.w3.org/2000/svg" width="933.333" height="933.333" viewBox="0 0 700.000000 700.000000"><path d="M297.3 88.2L255 130.5V238.8l-2.2.6c-1.3.3-5.7.6-9.8.6-24 .1-58.8 8.8-85 21.2C86.5 295 37.2 365.5 30.1 444c-.7 7.1-1.1 49.7-1.1 111.7V656h85v-97.5c0-61.7.4-101.1 1.1-107.3 3.5-32.4 16.1-59.7 38.2-82.9 24.6-25.7 56.7-40.9 91-43l10.7-.6v66.5c0 79.9.8 90.1 9.1 117.3 24.1 78.4 92.4 135.4 174.4 145.5 11.6 1.4 37.4 1.4 49 0 25.9-3.2 49.8-10.7 72.2-22.5 96.4-50.9 137.2-166.6 94.1-266.6-10.4-24.2-24.7-44.9-44.2-64.5-27-27-58.3-44.9-94.9-54.4-23.5-6-26.7-6.2-103.9-6.7l-70.8-.5-.2-96.4-.3-96.4-42.2 42.2zm188.2 238.7c31.3 7.8 54.8 21.9 71.9 43.3 18.6 23.3 27.6 48.4 27.6 77.3 0 27.4-8.1 51.9-24.4 73.5-15.1 20.1-35 34.5-58.6 42.5-14.4 4.9-21.7 6-39 6-17 0-24.5-1.1-38.5-5.7-19.6-6.5-36-17.1-51.2-33.2-15.1-16.1-25.4-35.7-30.4-58.1-2.2-9.7-2.2-12.1-2.6-78.8l-.4-68.8 70.3.4c51.3.3 71.6.7 75.3 1.6z"/></svg>